<?xml version="1.0" encoding="UTF-8"?>
<svg id="Logo" xmlns="http://www.w3.org/2000/svg" viewBox="0 0 1728 792">
  <defs>
    <style>
      .cls-1 {
        fill: #000;
      }

      .cls-1, .cls-2 {
        stroke-width: 0px;
      }

      .cls-2 {
        fill: #b2de26;
      }
    </style>
  </defs>
  <rect class="cls-2" x="855" y="-351" width="36" height="1170" transform="translate(1107 -639) rotate(90)"/>
  <rect class="cls-2" x="216" y="288" width="36" height="252" transform="translate(468 828) rotate(180)"/>
  <path class="cls-1" d="M484.47,504h-38.55l-19.56-55.45h-81.12l-20.14,55.45h-37.11l79.11-209.18h38.26l79.11,209.18ZM386.38,332.96l-31.93,88.02h62.42l-30.49-88.02Z"/>
  <path class="cls-1" d="M632.35,482.23c-16.01,15.05-36.77,22.58-62.28,22.58-28.96,0-52.16-9.78-69.61-29.34-17.45-19.56-26.18-45.55-26.18-77.96,0-19.56,3.74-37.35,11.22-53.36,7.48-16.01,18.7-28.96,33.66-38.83,14.96-9.88,32.51-14.81,52.64-14.81,21.67,0,40.56,5.99,56.67,17.98,16.11,11.99,25.79,29.29,29.05,51.92h-35.67c-2.49-12.27-8.25-21.91-17.26-28.91s-20.14-10.5-33.37-10.5-25.17,3.84-34.66,11.51c-9.49,7.67-16.2,17.12-20.14,28.33-3.93,11.22-5.9,23.44-5.9,36.68,0,9.97,1.15,19.37,3.45,28.19,2.3,8.82,5.75,16.92,10.36,24.31,4.6,7.38,10.88,13.28,18.84,17.69s17.21,6.62,27.76,6.62c30.49,0,47.94-17.45,52.35-52.35h35.96c-1.92,25.12-10.88,45.21-26.9,60.26Z"/>
  <path class="cls-1" d="M819,326.79h-60.74v177.21h-35.96v-177.21h-56.3v-31.69h153v31.69Z"/>
  <g>
    <polygon class="cls-1" points="850.45 420.42 860.25 420.42 860.25 372.34 877.71 372.34 877.71 364.03 832.99 364.03 832.99 372.34 850.45 372.34 850.45 420.42"/>
    <path class="cls-1" d="M912.74,379.41c-2.18-1.22-4.74-1.83-7.65-1.83-3.25,0-5.91.69-7.98,2.06-2.07,1.38-3.6,3.25-4.57,5.62h-.52v-21.23h-9.42v56.39h9.61v-24.83c.02-2.09.43-3.87,1.23-5.33.8-1.46,1.9-2.57,3.3-3.35,1.4-.77,3.02-1.16,4.83-1.16,2.66,0,4.74.8,6.22,2.41,1.49,1.61,2.23,3.87,2.23,6.79v25.47h9.61v-26.9c.02-3.45-.58-6.36-1.79-8.73-1.21-2.37-2.91-4.16-5.09-5.38Z"/>
    <path class="cls-1" d="M934.15,418.59c3.06,1.79,6.7,2.68,10.94,2.68,3.23,0,6.11-.5,8.63-1.5,2.52-1,4.61-2.4,6.25-4.21,1.64-1.81,2.76-3.91,3.35-6.32l-9-1.13c-.46,1.21-1.12,2.23-2,3.07-.87.84-1.91,1.46-3.11,1.87-1.2.41-2.54.62-4.01.62-2.22,0-4.16-.48-5.81-1.43-1.65-.95-2.94-2.33-3.85-4.13-.88-1.72-1.32-3.78-1.36-6.17h29.58v-3.03c0-3.73-.51-6.94-1.54-9.64-1.03-2.7-2.44-4.91-4.23-6.64-1.79-1.73-3.84-3-6.14-3.83-2.3-.83-4.74-1.24-7.31-1.24-4.02,0-7.52.92-10.5,2.77-2.98,1.84-5.3,4.42-6.95,7.71-1.65,3.29-2.48,7.12-2.48,11.47s.83,8.24,2.48,11.5c1.65,3.26,4.01,5.78,7.06,7.57ZM935.5,390.62c.87-1.63,2.09-2.96,3.66-3.96,1.57-1.01,3.4-1.51,5.49-1.51,1.96,0,3.68.44,5.15,1.32,1.47.88,2.62,2.09,3.44,3.62.83,1.53,1.24,3.28,1.24,5.25h-20.28c.1-1.68.52-3.26,1.29-4.71Z"/>
    <path class="cls-1" d="M1000.87,406.32h21.35l4.76,14.1h10.55l-19.96-56.39h-12.03l-19.96,56.39h10.55l4.75-14.1ZM1011.32,375.32h.44l7.76,22.99h-15.95l7.75-22.99Z"/>
    <rect class="cls-1" x="1041.14" y="364.03" width="9.61" height="56.39"/>
    <rect class="cls-1" x="1057.67" y="364.03" width="9.61" height="56.39"/>
    <path class="cls-1" d="M1079.04,372.04c1.56,0,2.89-.52,3.99-1.57,1.1-1.05,1.65-2.3,1.65-3.77s-.55-2.7-1.65-3.74-2.43-1.57-3.99-1.57-2.9.52-4.01,1.57c-1.11,1.05-1.67,2.3-1.67,3.77s.55,2.7,1.67,3.74c1.11,1.05,2.45,1.57,4.01,1.57Z"/>
    <rect class="cls-1" x="1074.2" y="378.12" width="9.61" height="42.29"/>
    <path class="cls-1" d="M1112.85,417.87c1.09-1.02,1.93-2.11,2.52-3.26h.33v5.81h9.25v-28.25c0-2.86-.51-5.24-1.53-7.12-1.02-1.88-2.36-3.37-4.03-4.46-1.67-1.09-3.51-1.87-5.51-2.33-2-.46-3.98-.69-5.95-.69-2.88,0-5.53.42-7.94,1.27-2.41.84-4.47,2.12-6.18,3.83-1.71,1.71-2.95,3.85-3.72,6.42l9,1.4c.51-1.47,1.5-2.75,2.96-3.84,1.46-1.09,3.44-1.64,5.93-1.64s4.23.59,5.48,1.76c1.25,1.17,1.87,2.83,1.87,4.96v.19c0,.95-.35,1.66-1.06,2.11-.71.45-1.84.78-3.39.98-1.55.2-3.58.44-6.07.72-2.04.24-4.02.59-5.93,1.06-1.92.47-3.64,1.17-5.18,2.09-1.53.93-2.74,2.17-3.63,3.73-.89,1.56-1.34,3.53-1.34,5.92,0,2.77.62,5.11,1.86,7.01,1.24,1.9,2.93,3.34,5.08,4.31,2.15.97,4.56,1.46,7.24,1.46,2.24,0,4.18-.32,5.82-.95,1.64-.63,3.01-1.46,4.1-2.48ZM1100.1,412.67c-1.37-.96-2.05-2.38-2.05-4.25,0-1.32.35-2.4,1.05-3.22.7-.83,1.65-1.47,2.85-1.93,1.2-.46,2.56-.8,4.06-1.02.66-.09,1.45-.2,2.38-.32.93-.12,1.86-.27,2.81-.44.95-.17,1.8-.37,2.56-.59.76-.22,1.3-.47,1.61-.74v5.07c0,1.6-.4,3.07-1.21,4.42-.81,1.35-1.96,2.43-3.47,3.25-1.51.82-3.29,1.23-5.34,1.23s-3.88-.48-5.25-1.45Z"/>
    <path class="cls-1" d="M1141.31,395.58c.02-2.09.41-3.87,1.18-5.33s1.84-2.57,3.22-3.35c1.38-.77,2.96-1.16,4.74-1.16,2.61,0,4.66.81,6.15,2.44,1.5,1.62,2.23,3.88,2.22,6.76v25.47h9.64v-26.9c.02-3.41-.58-6.31-1.79-8.67-1.21-2.37-2.9-4.17-5.07-5.41-2.17-1.24-4.71-1.86-7.63-1.86-3.16,0-5.8.69-7.93,2.08-2.13,1.39-3.67,3.25-4.63,5.6h-.52v-7.13h-9.2v42.29h9.61v-24.83Z"/>
    <path class="cls-1" d="M1188.19,387.06c1.57-1.11,3.4-1.67,5.49-1.67,2.44,0,4.4.69,5.88,2.06,1.48,1.38,2.41,3.08,2.79,5.12h9.22c-.24-3.01-1.15-5.64-2.73-7.9-1.58-2.26-3.68-4.01-6.29-5.25-2.62-1.24-5.62-1.86-9.02-1.86-4.09,0-7.64.93-10.64,2.78-3,1.85-5.33,4.42-6.98,7.71-1.65,3.29-2.48,7.09-2.48,11.4s.81,8.03,2.42,11.3c1.61,3.28,3.93,5.85,6.94,7.71,3.01,1.86,6.61,2.79,10.79,2.79,3.51,0,6.56-.65,9.16-1.94,2.6-1.29,4.65-3.07,6.17-5.34,1.51-2.27,2.4-4.87,2.66-7.81h-9.22c-.29,1.51-.84,2.79-1.65,3.87-.81,1.07-1.81,1.9-3,2.46-1.19.57-2.53.85-4.02.85-2.11,0-3.96-.57-5.53-1.71-1.58-1.14-2.8-2.76-3.66-4.86-.86-2.1-1.29-4.61-1.29-7.53s.44-5.36,1.32-7.43c.88-2.07,2.11-3.67,3.68-4.78Z"/>
    <path class="cls-1" d="M1247.98,382.64c-1.79-1.73-3.84-3-6.14-3.83-2.3-.83-4.74-1.24-7.31-1.24-4.02,0-7.52.92-10.5,2.77-2.98,1.84-5.3,4.42-6.95,7.71-1.65,3.29-2.48,7.12-2.48,11.47s.83,8.24,2.48,11.5c1.65,3.26,4.01,5.78,7.06,7.57,3.06,1.79,6.7,2.68,10.94,2.68,3.23,0,6.11-.5,8.63-1.5,2.52-1,4.61-2.4,6.25-4.21,1.64-1.81,2.76-3.91,3.35-6.32l-9-1.13c-.46,1.21-1.12,2.23-2,3.07-.87.84-1.91,1.46-3.11,1.87-1.2.41-2.54.62-4.01.62-2.22,0-4.16-.48-5.81-1.43-1.65-.95-2.94-2.33-3.85-4.13-.88-1.72-1.32-3.78-1.36-6.17h29.58v-3.03c0-3.73-.51-6.94-1.54-9.64-1.03-2.7-2.44-4.91-4.23-6.64ZM1224.19,395.33c.1-1.68.52-3.26,1.29-4.71.87-1.63,2.09-2.96,3.66-3.96,1.57-1.01,3.4-1.51,5.49-1.51,1.96,0,3.68.44,5.15,1.32,1.47.88,2.62,2.09,3.44,3.62.83,1.53,1.24,3.28,1.24,5.25h-20.28Z"/>
    <path class="cls-1" d="M1279.17,420.42h9.64v-34.8h8.84v-7.49h-8.84v-3.41c0-1.71.39-3.02,1.17-3.92.78-.91,2.12-1.36,4.01-1.36.79,0,1.5.07,2.15.21.64.14,1.17.28,1.57.43l1.98-7.54c-.62-.22-1.59-.46-2.89-.73-1.3-.27-2.82-.4-4.54-.4-2.4,0-4.6.46-6.58,1.39-1.98.93-3.56,2.32-4.74,4.19-1.17,1.86-1.76,4.19-1.76,6.98v4.19h-6.31v7.49h6.31v34.8Z"/>
    <path class="cls-1" d="M1329.51,380.3c-3.01-1.82-6.57-2.73-10.68-2.73s-7.65.91-10.66,2.73c-3.01,1.82-5.35,4.37-7.01,7.65-1.66,3.29-2.49,7.12-2.49,11.51s.83,8.16,2.49,11.43c1.66,3.27,4,5.81,7.01,7.64,3.01,1.83,6.56,2.74,10.66,2.74s7.67-.91,10.68-2.74c3.01-1.83,5.34-4.37,6.99-7.64,1.65-3.27,2.48-7.08,2.48-11.43s-.83-8.22-2.48-11.51c-1.65-3.29-3.98-5.84-6.99-7.65ZM1328.1,406.5c-.76,2.12-1.91,3.81-3.44,5.08-1.53,1.27-3.46,1.9-5.77,1.9s-4.3-.63-5.85-1.9c-1.55-1.27-2.71-2.96-3.47-5.08-.76-2.12-1.14-4.48-1.14-7.09s.38-4.98,1.14-7.12c.76-2.14,1.92-3.84,3.47-5.11,1.55-1.27,3.5-1.9,5.85-1.9s4.24.63,5.77,1.9c1.53,1.27,2.68,2.97,3.44,5.11.76,2.14,1.14,4.51,1.14,7.12s-.38,4.97-1.14,7.09Z"/>
    <path class="cls-1" d="M1358.4,387.29c1.45-.79,3.1-1.18,4.96-1.18.84,0,1.71.06,2.6.19.89.13,1.55.26,1.97.39v-8.89c-.46-.09-1.04-.17-1.73-.22-.7-.06-1.31-.08-1.84-.08-2.44,0-4.61.67-6.5,2-1.89,1.33-3.22,3.21-3.99,5.63h-.44v-6.99h-9.33v42.29h9.61v-25.06c0-1.8.42-3.4,1.27-4.79.84-1.4,1.99-2.49,3.44-3.28Z"/>
    <path class="cls-1" d="M851.66,455.79c2.4-1.55,5.16-2.33,8.26-2.33,1.73,0,3.35.24,4.87.72,1.52.48,2.89,1.18,4.09,2.11,1.2.93,2.21,2.05,3.01,3.37.81,1.32,1.37,2.85,1.68,4.57h9.94c-.42-3.12-1.32-5.89-2.68-8.31-1.37-2.42-3.1-4.48-5.2-6.17-2.1-1.69-4.5-2.97-7.19-3.85-2.69-.88-5.58-1.32-8.69-1.32-4.9,0-9.29,1.15-13.16,3.46-3.87,2.3-6.93,5.62-9.18,9.94-2.25,4.32-3.37,9.51-3.37,15.57s1.12,11.25,3.35,15.57c2.23,4.32,5.28,7.64,9.16,9.94,3.87,2.3,8.28,3.46,13.22,3.46,3.32,0,6.35-.49,9.07-1.47,2.73-.98,5.12-2.36,7.17-4.13,2.06-1.77,3.73-3.83,5.01-6.17,1.28-2.34,2.12-4.87,2.51-7.59l-9.94-.03c-.33,1.69-.91,3.19-1.73,4.49-.83,1.3-1.84,2.4-3.06,3.29-1.21.89-2.57,1.56-4.07,2.02-1.51.46-3.11.69-4.82.69-3.08,0-5.83-.76-8.23-2.29-2.4-1.52-4.29-3.78-5.66-6.76-1.37-2.98-2.05-6.66-2.05-11.03s.68-7.94,2.05-10.93c1.37-2.99,3.25-5.26,5.66-6.81Z"/>
    <rect class="cls-1" x="889.11" y="445.35" width="9.61" height="56.39"/>
    <rect class="cls-1" x="905.64" y="459.44" width="9.61" height="42.29"/>
    <path class="cls-1" d="M910.49,442.7c-1.56,0-2.9.52-4.01,1.57-1.11,1.05-1.67,2.3-1.67,3.77s.55,2.7,1.67,3.74c1.11,1.05,2.45,1.57,4.01,1.57s2.89-.52,3.99-1.57c1.1-1.05,1.65-2.3,1.65-3.77s-.55-2.7-1.65-3.75c-1.1-1.05-2.43-1.57-3.99-1.57Z"/>
    <path class="cls-1" d="M968.07,458.89c-3.07,0-5.71.7-7.93,2.09-2.22,1.4-3.81,3.26-4.76,5.59h-.44c-.83-2.39-2.23-4.26-4.2-5.63-1.97-1.37-4.38-2.05-7.23-2.05s-5.25.68-7.27,2.04c-2.02,1.36-3.47,3.24-4.35,5.64h-.52v-7.13h-9.2v42.29h9.61v-25.8c0-1.76.36-3.31,1.09-4.65.72-1.34,1.69-2.38,2.89-3.12,1.2-.74,2.53-1.11,3.98-1.11,2.15,0,3.89.66,5.23,1.98,1.34,1.32,2.01,3.08,2.01,5.29v27.42h9.44v-26.52c0-2.4.69-4.37,2.06-5.89,1.38-1.52,3.29-2.29,5.75-2.29,2.06,0,3.79.61,5.22,1.84,1.42,1.23,2.13,3.19,2.13,5.86v26.98h9.64v-28.39c0-4.74-1.22-8.33-3.66-10.78-2.44-2.45-5.61-3.68-9.5-3.68Z"/>
    <path class="cls-1" d="M1016.73,461.91c-1.67-1.09-3.51-1.87-5.51-2.33-2-.46-3.98-.69-5.95-.69-2.88,0-5.53.42-7.94,1.27-2.41.84-4.47,2.12-6.18,3.83-1.71,1.71-2.95,3.85-3.72,6.42l9,1.4c.51-1.47,1.5-2.75,2.96-3.84,1.46-1.09,3.44-1.64,5.93-1.64s4.23.59,5.48,1.76c1.25,1.17,1.87,2.83,1.87,4.96v.19c0,.95-.35,1.66-1.06,2.11-.71.45-1.84.78-3.39.98-1.55.2-3.58.44-6.07.72-2.04.24-4.02.59-5.93,1.06-1.92.47-3.64,1.17-5.18,2.09-1.53.93-2.74,2.17-3.63,3.73-.89,1.56-1.34,3.53-1.34,5.92,0,2.77.62,5.11,1.86,7.01,1.24,1.9,2.93,3.34,5.08,4.31,2.15.97,4.56,1.46,7.24,1.46,2.24,0,4.18-.32,5.82-.95,1.64-.63,3.01-1.46,4.1-2.48,1.09-1.02,1.93-2.11,2.52-3.26h.33v5.81h9.25v-28.25c0-2.86-.51-5.24-1.53-7.12-1.02-1.88-2.36-3.37-4.03-4.46ZM1012.71,486.54c0,1.6-.4,3.07-1.21,4.42-.81,1.35-1.96,2.43-3.47,3.25-1.51.82-3.29,1.23-5.34,1.23s-3.88-.48-5.25-1.45c-1.37-.96-2.05-2.38-2.05-4.25,0-1.32.35-2.4,1.05-3.22.7-.83,1.65-1.47,2.85-1.93,1.2-.46,2.56-.8,4.06-1.02.66-.09,1.45-.2,2.38-.32.93-.12,1.86-.27,2.81-.44.95-.17,1.8-.37,2.56-.59s1.3-.47,1.61-.74v5.07Z"/>
    <path class="cls-1" d="M1047.82,494c-.51.09-1.08.14-1.71.14-.84,0-1.62-.13-2.31-.4-.7-.27-1.26-.76-1.68-1.49-.42-.73-.63-1.78-.63-3.15v-22.16h8.4v-7.49h-8.4v-10.13h-9.64v10.13h-6.03v7.49h6.03v23.79c-.02,2.64.55,4.84,1.72,6.58,1.17,1.74,2.73,3.03,4.71,3.85,1.97.83,4.18,1.21,6.62,1.16,1.39-.04,2.57-.17,3.52-.39.95-.22,1.7-.41,2.23-.58l-1.65-7.6c-.28.07-.67.16-1.18.25Z"/>
    <path class="cls-1" d="M1086,463.96c-1.79-1.73-3.84-3-6.14-3.83-2.3-.83-4.74-1.24-7.31-1.24-4.02,0-7.52.92-10.5,2.77-2.98,1.84-5.3,4.42-6.95,7.71-1.65,3.29-2.48,7.12-2.48,11.47s.83,8.24,2.48,11.5c1.65,3.26,4.01,5.78,7.06,7.57,3.06,1.79,6.7,2.68,10.94,2.68,3.23,0,6.11-.5,8.63-1.5,2.52-1,4.61-2.4,6.25-4.21,1.64-1.81,2.76-3.91,3.35-6.32l-9-1.13c-.46,1.21-1.12,2.24-2,3.07-.87.84-1.91,1.46-3.11,1.87-1.2.41-2.54.62-4.01.62-2.22,0-4.16-.48-5.81-1.43-1.65-.95-2.94-2.33-3.85-4.13-.88-1.72-1.32-3.78-1.36-6.17h29.58v-3.03c0-3.73-.51-6.94-1.54-9.64-1.03-2.7-2.44-4.91-4.23-6.64ZM1062.21,476.65c.1-1.68.52-3.26,1.29-4.71.87-1.63,2.09-2.96,3.66-3.96,1.57-1.01,3.4-1.51,5.49-1.51,1.96,0,3.68.44,5.15,1.32,1.47.88,2.62,2.09,3.44,3.62.83,1.53,1.24,3.28,1.24,5.25h-20.28Z"/>
    <polygon class="cls-1" points="1102.99 453.66 1120.45 453.66 1120.45 501.73 1130.25 501.73 1130.25 453.66 1147.71 453.66 1147.71 445.35 1102.99 445.35 1102.99 453.66"/>
    <path class="cls-1" d="M1168.45,458.81c-2.44,0-4.61.67-6.5,2-1.89,1.33-3.22,3.21-3.99,5.63h-.44v-6.99h-9.33v42.29h9.61v-25.06c0-1.8.42-3.4,1.27-4.79.84-1.4,1.99-2.49,3.44-3.28,1.45-.79,3.1-1.18,4.96-1.18.84,0,1.71.06,2.6.19.89.13,1.55.26,1.97.39v-8.89c-.46-.09-1.04-.17-1.73-.22-.7-.06-1.31-.08-1.84-.08Z"/>
    <path class="cls-1" d="M1203.2,461.91c-1.67-1.09-3.51-1.87-5.51-2.33-2-.46-3.98-.69-5.95-.69-2.88,0-5.53.42-7.94,1.27-2.41.84-4.47,2.12-6.18,3.83-1.71,1.71-2.95,3.85-3.72,6.42l9,1.4c.51-1.47,1.5-2.75,2.96-3.84,1.46-1.09,3.44-1.64,5.93-1.64s4.23.59,5.48,1.76c1.25,1.17,1.87,2.83,1.87,4.96v.19c0,.95-.35,1.66-1.06,2.11-.71.45-1.84.78-3.39.98-1.55.2-3.58.44-6.07.72-2.04.24-4.02.59-5.93,1.06-1.92.47-3.64,1.17-5.18,2.09-1.53.93-2.74,2.17-3.63,3.73-.89,1.56-1.34,3.53-1.34,5.92,0,2.77.62,5.11,1.86,7.01,1.24,1.9,2.93,3.34,5.08,4.31,2.15.97,4.56,1.46,7.24,1.46,2.24,0,4.18-.32,5.82-.95,1.64-.63,3.01-1.46,4.1-2.48,1.09-1.02,1.93-2.11,2.52-3.26h.33v5.81h9.25v-28.25c0-2.86-.51-5.24-1.53-7.12-1.02-1.88-2.36-3.37-4.03-4.46ZM1199.18,486.54c0,1.6-.4,3.07-1.21,4.42-.81,1.35-1.96,2.43-3.47,3.25-1.51.82-3.29,1.23-5.34,1.23s-3.88-.48-5.25-1.45c-1.37-.96-2.05-2.38-2.05-4.25,0-1.32.35-2.4,1.05-3.22.7-.83,1.65-1.47,2.85-1.93,1.2-.46,2.56-.8,4.06-1.02.66-.09,1.45-.2,2.38-.32.93-.12,1.86-.27,2.81-.44.95-.17,1.8-.37,2.56-.59s1.3-.47,1.61-.74v5.07Z"/>
    <path class="cls-1" d="M1245.42,460.75c-2.17-1.24-4.71-1.86-7.63-1.86-3.16,0-5.8.69-7.93,2.08-2.13,1.39-3.67,3.25-4.63,5.6h-.52v-7.13h-9.2v42.29h9.61v-24.84c.02-2.09.41-3.87,1.18-5.33.77-1.46,1.84-2.57,3.22-3.35,1.38-.77,2.96-1.16,4.74-1.16,2.61,0,4.66.81,6.15,2.44,1.5,1.62,2.23,3.88,2.22,6.76v25.47h9.64v-26.9c.02-3.41-.58-6.31-1.79-8.67-1.21-2.37-2.9-4.17-5.07-5.41Z"/>
    <path class="cls-1" d="M1281.25,477.7l-7.1-1.54c-2.18-.5-3.75-1.14-4.71-1.93-.95-.79-1.42-1.82-1.4-3.08-.02-1.49.69-2.69,2.13-3.62,1.44-.93,3.22-1.39,5.33-1.39,1.58,0,2.9.26,3.98.77,1.07.51,1.94,1.18,2.59,2,.65.82,1.11,1.69,1.36,2.63l8.76-1.07c-.7-3.54-2.45-6.36-5.26-8.44-2.81-2.08-6.65-3.12-11.54-3.12-3.34,0-6.29.53-8.84,1.58-2.55,1.06-4.54,2.54-5.97,4.45-1.43,1.91-2.15,4.16-2.15,6.75,0,3.07.96,5.6,2.89,7.6,1.93,2,4.91,3.43,8.95,4.3l7.21,1.51c1.95.42,3.39,1.04,4.34,1.86.95.82,1.42,1.84,1.42,3.07,0,1.49-.74,2.73-2.22,3.73-1.48,1-3.44,1.5-5.88,1.5-2.31,0-4.2-.5-5.66-1.49-1.46-.99-2.42-2.46-2.88-4.41l-9.36.99c.62,3.85,2.5,6.86,5.62,9.02,3.12,2.16,7.22,3.23,12.31,3.23,3.52,0,6.63-.57,9.31-1.71,2.68-1.14,4.78-2.72,6.31-4.74,1.52-2.02,2.29-4.35,2.31-6.99-.02-3.01-1-5.45-2.95-7.32-1.95-1.87-4.91-3.25-8.89-4.13Z"/>
    <rect class="cls-1" x="1297.97" y="459.44" width="9.61" height="42.29"/>
    <path class="cls-1" d="M1302.81,442.7c-1.56,0-2.9.52-4.01,1.57-1.11,1.05-1.67,2.3-1.67,3.77s.55,2.7,1.67,3.74c1.11,1.05,2.45,1.57,4.01,1.57s2.89-.52,3.99-1.57,1.65-2.3,1.65-3.77-.55-2.7-1.65-3.75c-1.1-1.05-2.43-1.57-3.99-1.57Z"/>
    <path class="cls-1" d="M1333.27,494c-.51.09-1.08.14-1.71.14-.84,0-1.62-.13-2.31-.4-.7-.27-1.26-.76-1.68-1.49-.42-.73-.63-1.78-.63-3.15v-22.16h8.4v-7.49h-8.4v-10.13h-9.64v10.13h-6.03v7.49h6.03v23.79c-.02,2.64.55,4.84,1.72,6.58,1.17,1.74,2.73,3.03,4.71,3.85,1.97.83,4.18,1.21,6.62,1.16,1.39-.04,2.57-.17,3.52-.39.95-.22,1.7-.41,2.23-.58l-1.65-7.6c-.28.07-.67.16-1.18.25Z"/>
    <rect class="cls-1" x="1340.36" y="459.44" width="9.61" height="42.29"/>
    <path class="cls-1" d="M1345.2,442.7c-1.56,0-2.9.52-4.01,1.57-1.11,1.05-1.67,2.3-1.67,3.77s.55,2.7,1.67,3.74c1.11,1.05,2.45,1.57,4.01,1.57s2.89-.52,3.99-1.57c1.1-1.05,1.65-2.3,1.65-3.77s-.55-2.7-1.65-3.75c-1.1-1.05-2.43-1.57-3.99-1.57Z"/>
    <path class="cls-1" d="M1385.87,461.62c-3.01-1.82-6.57-2.73-10.68-2.73s-7.65.91-10.66,2.73c-3.01,1.82-5.35,4.37-7.01,7.65-1.66,3.29-2.49,7.12-2.49,11.51s.83,8.16,2.49,11.43c1.66,3.27,4,5.81,7.01,7.64,3.01,1.83,6.56,2.74,10.66,2.74s7.67-.91,10.68-2.74c3.01-1.83,5.34-4.37,6.99-7.64,1.65-3.27,2.48-7.08,2.48-11.43s-.83-8.22-2.48-11.51c-1.65-3.29-3.98-5.84-6.99-7.65ZM1384.46,487.82c-.76,2.12-1.91,3.81-3.44,5.08-1.53,1.27-3.46,1.9-5.77,1.9s-4.3-.63-5.85-1.9c-1.55-1.27-2.71-2.96-3.47-5.08-.76-2.12-1.14-4.48-1.14-7.09s.38-4.98,1.14-7.12c.76-2.14,1.92-3.84,3.47-5.11,1.55-1.27,3.5-1.9,5.85-1.9s4.24.63,5.77,1.9c1.53,1.27,2.68,2.97,3.44,5.11.76,2.14,1.14,4.51,1.14,7.12s-.38,4.97-1.14,7.09Z"/>
    <path class="cls-1" d="M1435.42,466.16c-1.21-2.37-2.9-4.17-5.07-5.41-2.17-1.24-4.71-1.86-7.63-1.86-3.16,0-5.8.69-7.93,2.08-2.13,1.39-3.67,3.25-4.63,5.6h-.52v-7.13h-9.2v42.29h9.61v-24.84c.02-2.09.41-3.87,1.18-5.33.77-1.46,1.84-2.57,3.22-3.35,1.38-.77,2.96-1.16,4.74-1.16,2.61,0,4.66.81,6.15,2.44,1.5,1.62,2.23,3.88,2.22,6.76v25.47h9.64v-26.9c.02-3.41-.58-6.31-1.79-8.67Z"/>
  </g>
</svg>